<svg class="rich-terminal" viewBox="0 0 994 782.0" xmlns="http://www.w3.org/2000/svg">
    <!-- Generated with Rich https://www.textualize.io -->
    <style>

    @font-face {
        font-family: "Fira Code";
        src: local("FiraCode-Regular"),
                url("https://cdnjs.cloudflare.com/ajax/libs/firacode/6.2.0/woff2/FiraCode-Regular.woff2") format("woff2"),
                url("https://cdnjs.cloudflare.com/ajax/libs/firacode/6.2.0/woff/FiraCode-Regular.woff") format("woff");
        font-style: normal;
        font-weight: 400;
    }
    @font-face {
        font-family: "Fira Code";
        src: local("FiraCode-Bold"),
                url("https://cdnjs.cloudflare.com/ajax/libs/firacode/6.2.0/woff2/FiraCode-Bold.woff2") format("woff2"),
                url("https://cdnjs.cloudflare.com/ajax/libs/firacode/6.2.0/woff/FiraCode-Bold.woff") format("woff");
        font-style: bold;
        font-weight: 700;
    }

    .terminal-2715570577-matrix {
        font-family: Fira Code, monospace;
        font-size: 20px;
        line-height: 24.4px;
        font-variant-east-asian: full-width;
    }

    .terminal-2715570577-title {
        font-size: 18px;
        font-weight: bold;
        font-family: arial;
    }

    .terminal-2715570577-r1 { fill: #c5c8c6 }
.terminal-2715570577-r2 { fill: #91abec }
.terminal-2715570577-r3 { fill: #91abec;font-weight: bold }
.terminal-2715570577-r4 { fill: #e9e9e9;font-weight: bold }
.terminal-2715570577-r5 { fill: #e9e9e9;font-style: italic; }
.terminal-2715570577-r6 { fill: #fd8383 }
.terminal-2715570577-r7 { fill: #54efae }
.terminal-2715570577-r8 { fill: #e9e9e9 }
.terminal-2715570577-r9 { fill: #969aad }
.terminal-2715570577-r10 { fill: #0f1525 }
.terminal-2715570577-r11 { fill: #003054 }
.terminal-2715570577-r12 { fill: #ffa62b;font-weight: bold }
.terminal-2715570577-r13 { fill: #e0e0e0 }
.terminal-2715570577-r14 { fill: #495259 }
    </style>

    <defs>
    <clipPath id="terminal-2715570577-clip-terminal">
      <rect x="0" y="0" width="975.0" height="731.0" />
    </clipPath>
    <clipPath id="terminal-2715570577-line-0">
    <rect x="0" y="1.5" width="976" height="24.65"/>
            </clipPath>
<clipPath id="terminal-2715570577-line-1">
    <rect x="0" y="25.9" width="976" height="24.65"/>
            </clipPath>
<clipPath id="terminal-2715570577-line-2">
    <rect x="0" y="50.3" width="976" height="24.65"/>
            </clipPath>
<clipPath id="terminal-2715570577-line-3">
    <rect x="0" y="74.7" width="976" height="24.65"/>
            </clipPath>
<clipPath id="terminal-2715570577-line-4">
    <rect x="0" y="99.1" width="976" height="24.65"/>
            </clipPath>
<clipPath id="terminal-2715570577-line-5">
    <rect x="0" y="123.5" width="976" height="24.65"/>
            </clipPath>
<clipPath id="terminal-2715570577-line-6">
    <rect x="0" y="147.9" width="976" height="24.65"/>
            </clipPath>
<clipPath id="terminal-2715570577-line-7">
    <rect x="0" y="172.3" width="976" height="24.65"/>
            </clipPath>
<clipPath id="terminal-2715570577-line-8">
    <rect x="0" y="196.7" width="976" height="24.65"/>
            </clipPath>
<clipPath id="terminal-2715570577-line-9">
    <rect x="0" y="221.1" width="976" height="24.65"/>
            </clipPath>
<clipPath id="terminal-2715570577-line-10">
    <rect x="0" y="245.5" width="976" height="24.65"/>
            </clipPath>
<clipPath id="terminal-2715570577-line-11">
    <rect x="0" y="269.9" width="976" height="24.65"/>
            </clipPath>
<clipPath id="terminal-2715570577-line-12">
    <rect x="0" y="294.3" width="976" height="24.65"/>
            </clipPath>
<clipPath id="terminal-2715570577-line-13">
    <rect x="0" y="318.7" width="976" height="24.65"/>
            </clipPath>
<clipPath id="terminal-2715570577-line-14">
    <rect x="0" y="343.1" width="976" height="24.65"/>
            </clipPath>
<clipPath id="terminal-2715570577-line-15">
    <rect x="0" y="367.5" width="976" height="24.65"/>
            </clipPath>
<clipPath id="terminal-2715570577-line-16">
    <rect x="0" y="391.9" width="976" height="24.65"/>
            </clipPath>
<clipPath id="terminal-2715570577-line-17">
    <rect x="0" y="416.3" width="976" height="24.65"/>
            </clipPath>
<clipPath id="terminal-2715570577-line-18">
    <rect x="0" y="440.7" width="976" height="24.65"/>
            </clipPath>
<clipPath id="terminal-2715570577-line-19">
    <rect x="0" y="465.1" width="976" height="24.65"/>
            </clipPath>
<clipPath id="terminal-2715570577-line-20">
    <rect x="0" y="489.5" width="976" height="24.65"/>
            </clipPath>
<clipPath id="terminal-2715570577-line-21">
    <rect x="0" y="513.9" width="976" height="24.65"/>
            </clipPath>
<clipPath id="terminal-2715570577-line-22">
    <rect x="0" y="538.3" width="976" height="24.65"/>
            </clipPath>
<clipPath id="terminal-2715570577-line-23">
    <rect x="0" y="562.7" width="976" height="24.65"/>
            </clipPath>
<clipPath id="terminal-2715570577-line-24">
    <rect x="0" y="587.1" width="976" height="24.65"/>
            </clipPath>
<clipPath id="terminal-2715570577-line-25">
    <rect x="0" y="611.5" width="976" height="24.65"/>
            </clipPath>
<clipPath id="terminal-2715570577-line-26">
    <rect x="0" y="635.9" width="976" height="24.65"/>
            </clipPath>
<clipPath id="terminal-2715570577-line-27">
    <rect x="0" y="660.3" width="976" height="24.65"/>
            </clipPath>
<clipPath id="terminal-2715570577-line-28">
    <rect x="0" y="684.7" width="976" height="24.65"/>
            </clipPath>
    </defs>

    <rect fill="#292929" stroke="rgba(255,255,255,0.35)" stroke-width="1" x="1" y="1" width="992" height="780" rx="8"/><text class="terminal-2715570577-title" fill="#c5c8c6" text-anchor="middle" x="496" y="27">LegendN8Proto</text>
            <g transform="translate(26,22)">
            <circle cx="0" cy="0" r="7" fill="#ff5f57"/>
            <circle cx="22" cy="0" r="7" fill="#febc2e"/>
            <circle cx="44" cy="0" r="7" fill="#28c840"/>
            </g>
        
    <g transform="translate(9, 41)" clip-path="url(#terminal-2715570577-clip-terminal)">
    <rect fill="#0a0e1b" x="0" y="1.5" width="976" height="24.65" shape-rendering="crispEdges"/><rect fill="#0a0e1b" x="0" y="25.9" width="12.2" height="24.65" shape-rendering="crispEdges"/><rect fill="#0f1525" x="12.2" y="25.9" width="12.2" height="24.65" shape-rendering="crispEdges"/><rect fill="#0f1525" x="24.4" y="25.9" width="829.6" height="24.65" shape-rendering="crispEdges"/><rect fill="#0f1525" x="854" y="25.9" width="12.2" height="24.65" shape-rendering="crispEdges"/><rect fill="#0a0e1b" x="866.2" y="25.9" width="97.6" height="24.65" shape-rendering="crispEdges"/><rect fill="#0a0e1b" x="963.8" y="25.9" width="12.2" height="24.65" shape-rendering="crispEdges"/><rect fill="#0a0e1b" x="0" y="50.3" width="12.2" height="24.65" shape-rendering="crispEdges"/><rect fill="#0f1525" x="12.2" y="50.3" width="12.2" height="24.65" shape-rendering="crispEdges"/><rect fill="#0f1525" x="24.4" y="50.3" width="829.6" height="24.65" shape-rendering="crispEdges"/><rect fill="#0f1525" x="854" y="50.3" width="12.2" height="24.65" shape-rendering="crispEdges"/><rect fill="#0a0e1b" x="866.2" y="50.3" width="97.6" height="24.65" shape-rendering="crispEdges"/><rect fill="#0a0e1b" x="963.8" y="50.3" width="12.2" height="24.65" shape-rendering="crispEdges"/><rect fill="#0a0e1b" x="0" y="74.7" width="12.2" height="24.65" shape-rendering="crispEdges"/><rect fill="#0f1525" x="12.2" y="74.7" width="12.2" height="24.65" shape-rendering="crispEdges"/><rect fill="#0f1525" x="24.4" y="74.7" width="24.4" height="24.65" shape-rendering="crispEdges"/><rect fill="#0f1525" x="48.8" y="74.7" width="549" height="24.65" shape-rendering="crispEdges"/><rect fill="#0f1525" x="597.8" y="74.7" width="231.8" height="24.65" shape-rendering="crispEdges"/><rect fill="#0f1525" x="829.6" y="74.7" width="24.4" height="24.65" shape-rendering="crispEdges"/><rect fill="#0f1525" x="854" y="74.7" width="12.2" height="24.65" shape-rendering="crispEdges"/><rect fill="#0a0e1b" x="866.2" y="74.7" width="97.6" height="24.65" shape-rendering="crispEdges"/><rect fill="#0a0e1b" x="963.8" y="74.7" width="12.2" height="24.65" shape-rendering="crispEdges"/><rect fill="#0a0e1b" x="0" y="99.1" width="12.2" height="24.65" shape-rendering="crispEdges"/><rect fill="#0f1525" x="12.2" y="99.1" width="12.2" height="24.65" shape-rendering="crispEdges"/><rect fill="#0f1525" x="24.4" y="99.1" width="24.4" height="24.65" shape-rendering="crispEdges"/><rect fill="#0f1525" x="48.8" y="99.1" width="780.8" height="24.65" shape-rendering="crispEdges"/><rect fill="#0f1525" x="829.6" y="99.1" width="24.4" height="24.65" shape-rendering="crispEdges"/><rect fill="#0f1525" x="854" y="99.1" width="12.2" height="24.65" shape-rendering="crispEdges"/><rect fill="#0a0e1b" x="866.2" y="99.1" width="97.6" height="24.65" shape-rendering="crispEdges"/><rect fill="#0a0e1b" x="963.8" y="99.1" width="12.2" height="24.65" shape-rendering="crispEdges"/><rect fill="#0a0e1b" x="0" y="123.5" width="12.2" height="24.65" shape-rendering="crispEdges"/><rect fill="#0f1525" x="12.2" y="123.5" width="12.2" height="24.65" shape-rendering="crispEdges"/><rect fill="#0f1525" x="24.4" y="123.5" width="24.4" height="24.65" shape-rendering="crispEdges"/><rect fill="#0f1525" x="48.8" y="123.5" width="109.8" height="24.65" shape-rendering="crispEdges"/><rect fill="#0f1525" x="158.6" y="123.5" width="671" height="24.65" shape-rendering="crispEdges"/><rect fill="#0f1525" x="829.6" y="123.5" width="24.4" height="24.65" shape-rendering="crispEdges"/><rect fill="#0f1525" x="854" y="123.5" width="12.2" height="24.65" shape-rendering="crispEdges"/><rect fill="#0a0e1b" x="866.2" y="123.5" width="97.6" height="24.65" shape-rendering="crispEdges"/><rect fill="#0a0e1b" x="963.8" y="123.5" width="12.2" height="24.65" shape-rendering="crispEdges"/><rect fill="#0a0e1b" x="0" y="147.9" width="12.2" height="24.65" shape-rendering="crispEdges"/><rect fill="#0f1525" x="12.2" y="147.9" width="12.2" height="24.65" shape-rendering="crispEdges"/><rect fill="#0f1525" x="24.4" y="147.9" width="24.4" height="24.65" shape-rendering="crispEdges"/><rect fill="#0f1525" x="48.8" y="147.9" width="585.6" height="24.65" shape-rendering="crispEdges"/><rect fill="#0f1525" x="634.4" y="147.9" width="195.2" height="24.65" shape-rendering="crispEdges"/><rect fill="#0f1525" x="829.6" y="147.9" width="24.4" height="24.65" shape-rendering="crispEdges"/><rect fill="#0f1525" x="854" y="147.9" width="12.2" height="24.65" shape-rendering="crispEdges"/><rect fill="#0a0e1b" x="866.2" y="147.9" width="97.6" height="24.65" shape-rendering="crispEdges"/><rect fill="#0a0e1b" x="963.8" y="147.9" width="12.2" height="24.65" shape-rendering="crispEdges"/><rect fill="#0a0e1b" x="0" y="172.3" width="12.2" height="24.65" shape-rendering="crispEdges"/><rect fill="#0f1525" x="12.2" y="172.3" width="12.2" height="24.65" shape-rendering="crispEdges"/><rect fill="#0f1525" x="24.4" y="172.3" width="24.4" height="24.65" shape-rendering="crispEdges"/><rect fill="#0f1525" x="48.8" y="172.3" width="780.8" height="24.65" shape-rendering="crispEdges"/><rect fill="#0f1525" x="829.6" y="172.3" width="24.4" height="24.65" shape-rendering="crispEdges"/><rect fill="#0f1525" x="854" y="172.3" width="12.2" height="24.65" shape-rendering="crispEdges"/><rect fill="#0a0e1b" x="866.2" y="172.3" width="97.6" height="24.65" shape-rendering="crispEdges"/><rect fill="#0a0e1b" x="963.8" y="172.3" width="12.2" height="24.65" shape-rendering="crispEdges"/><rect fill="#0a0e1b" x="0" y="196.7" width="12.2" height="24.65" shape-rendering="crispEdges"/><rect fill="#0f1525" x="12.2" y="196.7" width="12.2" height="24.65" shape-rendering="crispEdges"/><rect fill="#0f1525" x="24.4" y="196.7" width="24.4" height="24.65" shape-rendering="crispEdges"/><rect fill="#0f1525" x="48.8" y="196.7" width="36.6" height="24.65" shape-rendering="crispEdges"/><rect fill="#0f1525" x="85.4" y="196.7" width="744.2" height="24.65" shape-rendering="crispEdges"/><rect fill="#0f1525" x="829.6" y="196.7" width="24.4" height="24.65" shape-rendering="crispEdges"/><rect fill="#0f1525" x="854" y="196.7" width="12.2" height="24.65" shape-rendering="crispEdges"/><rect fill="#0a0e1b" x="866.2" y="196.7" width="97.6" height="24.65" shape-rendering="crispEdges"/><rect fill="#0a0e1b" x="963.8" y="196.7" width="12.2" height="24.65" shape-rendering="crispEdges"/><rect fill="#0a0e1b" x="0" y="221.1" width="12.2" height="24.65" shape-rendering="crispEdges"/><rect fill="#0f1525" x="12.2" y="221.1" width="12.2" height="24.65" shape-rendering="crispEdges"/><rect fill="#0f1525" x="24.4" y="221.1" width="24.4" height="24.65" shape-rendering="crispEdges"/><rect fill="#0f1525" x="48.8" y="221.1" width="646.6" height="24.65" shape-rendering="crispEdges"/><rect fill="#0f1525" x="695.4" y="221.1" width="134.2" height="24.65" shape-rendering="crispEdges"/><rect fill="#0f1525" x="829.6" y="221.1" width="24.4" height="24.65" shape-rendering="crispEdges"/><rect fill="#0f1525" x="854" y="221.1" width="12.2" height="24.65" shape-rendering="crispEdges"/><rect fill="#0a0e1b" x="866.2" y="221.1" width="97.6" height="24.65" shape-rendering="crispEdges"/><rect fill="#0a0e1b" x="963.8" y="221.1" width="12.2" height="24.65" shape-rendering="crispEdges"/><rect fill="#0a0e1b" x="0" y="245.5" width="12.2" height="24.65" shape-rendering="crispEdges"/><rect fill="#0f1525" x="12.2" y="245.5" width="12.2" height="24.65" shape-rendering="crispEdges"/><rect fill="#0f1525" x="24.4" y="245.5" width="24.4" height="24.65" shape-rendering="crispEdges"/><rect fill="#0f1525" x="48.8" y="245.5" width="780.8" height="24.65" shape-rendering="crispEdges"/><rect fill="#0f1525" x="829.6" y="245.5" width="24.4" height="24.65" shape-rendering="crispEdges"/><rect fill="#0f1525" x="854" y="245.5" width="12.2" height="24.65" shape-rendering="crispEdges"/><rect fill="#0a0e1b" x="866.2" y="245.5" width="97.6" height="24.65" shape-rendering="crispEdges"/><rect fill="#0a0e1b" x="963.8" y="245.5" width="12.2" height="24.65" shape-rendering="crispEdges"/><rect fill="#0a0e1b" x="0" y="269.9" width="12.2" height="24.65" shape-rendering="crispEdges"/><rect fill="#0f1525" x="12.2" y="269.9" width="12.2" height="24.65" shape-rendering="crispEdges"/><rect fill="#0f1525" x="24.4" y="269.9" width="24.4" height="24.65" shape-rendering="crispEdges"/><rect fill="#0f1525" x="48.8" y="269.9" width="780.8" height="24.65" shape-rendering="crispEdges"/><rect fill="#0f1525" x="829.6" y="269.9" width="24.4" height="24.65" shape-rendering="crispEdges"/><rect fill="#0f1525" x="854" y="269.9" width="12.2" height="24.65" shape-rendering="crispEdges"/><rect fill="#0a0e1b" x="866.2" y="269.9" width="97.6" height="24.65" shape-rendering="crispEdges"/><rect fill="#0a0e1b" x="963.8" y="269.9" width="12.2" height="24.65" shape-rendering="crispEdges"/><rect fill="#0a0e1b" x="0" y="294.3" width="12.2" height="24.65" shape-rendering="crispEdges"/><rect fill="#0f1525" x="12.2" y="294.3" width="12.2" height="24.65" shape-rendering="crispEdges"/><rect fill="#0f1525" x="24.4" y="294.3" width="24.4" height="24.65" shape-rendering="crispEdges"/><rect fill="#0f1525" x="48.8" y="294.3" width="780.8" height="24.65" shape-rendering="crispEdges"/><rect fill="#0f1525" x="829.6" y="294.3" width="24.4" height="24.65" shape-rendering="crispEdges"/><rect fill="#0f1525" x="854" y="294.3" width="12.2" height="24.65" shape-rendering="crispEdges"/><rect fill="#0a0e1b" x="866.2" y="294.3" width="97.6" height="24.65" shape-rendering="crispEdges"/><rect fill="#0a0e1b" x="963.8" y="294.3" width="12.2" height="24.65" shape-rendering="crispEdges"/><rect fill="#0a0e1b" x="0" y="318.7" width="12.2" height="24.65" shape-rendering="crispEdges"/><rect fill="#0f1525" x="12.2" y="318.7" width="12.2" height="24.65" shape-rendering="crispEdges"/><rect fill="#0f1525" x="24.4" y="318.7" width="24.4" height="24.65" shape-rendering="crispEdges"/><rect fill="#0f1525" x="48.8" y="318.7" width="780.8" height="24.65" shape-rendering="crispEdges"/><rect fill="#0f1525" x="829.6" y="318.7" width="24.4" height="24.65" shape-rendering="crispEdges"/><rect fill="#0f1525" x="854" y="318.7" width="12.2" height="24.65" shape-rendering="crispEdges"/><rect fill="#0a0e1b" x="866.2" y="318.7" width="97.6" height="24.65" shape-rendering="crispEdges"/><rect fill="#0a0e1b" x="963.8" y="318.7" width="12.2" height="24.65" shape-rendering="crispEdges"/><rect fill="#0a0e1b" x="0" y="343.1" width="12.2" height="24.65" shape-rendering="crispEdges"/><rect fill="#0f1525" x="12.2" y="343.1" width="12.2" height="24.65" shape-rendering="crispEdges"/><rect fill="#0f1525" x="24.4" y="343.1" width="24.4" height="24.65" shape-rendering="crispEdges"/><rect fill="#0f1525" x="48.8" y="343.1" width="780.8" height="24.65" shape-rendering="crispEdges"/><rect fill="#0f1525" x="829.6" y="343.1" width="24.4" height="24.65" shape-rendering="crispEdges"/><rect fill="#0f1525" x="854" y="343.1" width="12.2" height="24.65" shape-rendering="crispEdges"/><rect fill="#0a0e1b" x="866.2" y="343.1" width="97.6" height="24.65" shape-rendering="crispEdges"/><rect fill="#0a0e1b" x="963.8" y="343.1" width="12.2" height="24.65" shape-rendering="crispEdges"/><rect fill="#0a0e1b" x="0" y="367.5" width="12.2" height="24.65" shape-rendering="crispEdges"/><rect fill="#0f1525" x="12.2" y="367.5" width="12.2" height="24.65" shape-rendering="crispEdges"/><rect fill="#0f1525" x="24.4" y="367.5" width="24.4" height="24.65" shape-rendering="crispEdges"/><rect fill="#0f1525" x="48.8" y="367.5" width="780.8" height="24.65" shape-rendering="crispEdges"/><rect fill="#0f1525" x="829.6" y="367.5" width="24.4" height="24.65" shape-rendering="crispEdges"/><rect fill="#0f1525" x="854" y="367.5" width="12.2" height="24.65" shape-rendering="crispEdges"/><rect fill="#0a0e1b" x="866.2" y="367.5" width="97.6" height="24.65" shape-rendering="crispEdges"/><rect fill="#0a0e1b" x="963.8" y="367.5" width="12.2" height="24.65" shape-rendering="crispEdges"/><rect fill="#0a0e1b" x="0" y="391.9" width="12.2" height="24.65" shape-rendering="crispEdges"/><rect fill="#0f1525" x="12.2" y="391.9" width="12.2" height="24.65" shape-rendering="crispEdges"/><rect fill="#0f1525" x="24.4" y="391.9" width="24.4" height="24.65" shape-rendering="crispEdges"/><rect fill="#0f1525" x="48.8" y="391.9" width="780.8" height="24.65" shape-rendering="crispEdges"/><rect fill="#0f1525" x="829.6" y="391.9" width="24.4" height="24.65" shape-rendering="crispEdges"/><rect fill="#0f1525" x="854" y="391.9" width="12.2" height="24.65" shape-rendering="crispEdges"/><rect fill="#0a0e1b" x="866.2" y="391.9" width="97.6" height="24.65" shape-rendering="crispEdges"/><rect fill="#0a0e1b" x="963.8" y="391.9" width="12.2" height="24.65" shape-rendering="crispEdges"/><rect fill="#0a0e1b" x="0" y="416.3" width="12.2" height="24.65" shape-rendering="crispEdges"/><rect fill="#0f1525" x="12.2" y="416.3" width="12.2" height="24.65" shape-rendering="crispEdges"/><rect fill="#0f1525" x="24.4" y="416.3" width="24.4" height="24.65" shape-rendering="crispEdges"/><rect fill="#0f1525" x="48.8" y="416.3" width="780.8" height="24.65" shape-rendering="crispEdges"/><rect fill="#0f1525" x="829.6" y="416.3" width="24.4" height="24.65" shape-rendering="crispEdges"/><rect fill="#0f1525" x="854" y="416.3" width="12.2" height="24.65" shape-rendering="crispEdges"/><rect fill="#0a0e1b" x="866.2" y="416.3" width="97.6" height="24.65" shape-rendering="crispEdges"/><rect fill="#0a0e1b" x="963.8" y="416.3" width="12.2" height="24.65" shape-rendering="crispEdges"/><rect fill="#0a0e1b" x="0" y="440.7" width="12.2" height="24.65" shape-rendering="crispEdges"/><rect fill="#0f1525" x="12.2" y="440.7" width="12.2" height="24.65" shape-rendering="crispEdges"/><rect fill="#0f1525" x="24.4" y="440.7" width="24.4" height="24.65" shape-rendering="crispEdges"/><rect fill="#0f1525" x="48.8" y="440.7" width="780.8" height="24.65" shape-rendering="crispEdges"/><rect fill="#0f1525" x="829.6" y="440.7" width="24.4" height="24.65" shape-rendering="crispEdges"/><rect fill="#0f1525" x="854" y="440.7" width="12.2" height="24.65" shape-rendering="crispEdges"/><rect fill="#0a0e1b" x="866.2" y="440.7" width="97.6" height="24.65" shape-rendering="crispEdges"/><rect fill="#0a0e1b" x="963.8" y="440.7" width="12.2" height="24.65" shape-rendering="crispEdges"/><rect fill="#0a0e1b" x="0" y="465.1" width="12.2" height="24.65" shape-rendering="crispEdges"/><rect fill="#0f1525" x="12.2" y="465.1" width="12.2" height="24.65" shape-rendering="crispEdges"/><rect fill="#0f1525" x="24.4" y="465.1" width="24.4" height="24.65" shape-rendering="crispEdges"/><rect fill="#0f1525" x="48.8" y="465.1" width="780.8" height="24.65" shape-rendering="crispEdges"/><rect fill="#0f1525" x="829.6" y="465.1" width="24.4" height="24.65" shape-rendering="crispEdges"/><rect fill="#0f1525" x="854" y="465.1" width="12.2" height="24.65" shape-rendering="crispEdges"/><rect fill="#0a0e1b" x="866.2" y="465.1" width="97.6" height="24.65" shape-rendering="crispEdges"/><rect fill="#0a0e1b" x="963.8" y="465.1" width="12.2" height="24.65" shape-rendering="crispEdges"/><rect fill="#0a0e1b" x="0" y="489.5" width="12.2" height="24.65" shape-rendering="crispEdges"/><rect fill="#0f1525" x="12.2" y="489.5" width="12.2" height="24.65" shape-rendering="crispEdges"/><rect fill="#0f1525" x="24.4" y="489.5" width="24.4" height="24.65" shape-rendering="crispEdges"/><rect fill="#0f1525" x="48.8" y="489.5" width="780.8" height="24.65" shape-rendering="crispEdges"/><rect fill="#0f1525" x="829.6" y="489.5" width="24.4" height="24.65" shape-rendering="crispEdges"/><rect fill="#0f1525" x="854" y="489.5" width="12.2" height="24.65" shape-rendering="crispEdges"/><rect fill="#0a0e1b" x="866.2" y="489.5" width="97.6" height="24.65" shape-rendering="crispEdges"/><rect fill="#0a0e1b" x="963.8" y="489.5" width="12.2" height="24.65" shape-rendering="crispEdges"/><rect fill="#0a0e1b" x="0" y="513.9" width="12.2" height="24.65" shape-rendering="crispEdges"/><rect fill="#0f1525" x="12.2" y="513.9" width="12.2" height="24.65" shape-rendering="crispEdges"/><rect fill="#0f1525" x="24.4" y="513.9" width="24.4" height="24.65" shape-rendering="crispEdges"/><rect fill="#0f1525" x="48.8" y="513.9" width="780.8" height="24.65" shape-rendering="crispEdges"/><rect fill="#0f1525" x="829.6" y="513.9" width="24.4" height="24.65" shape-rendering="crispEdges"/><rect fill="#0f1525" x="854" y="513.9" width="12.2" height="24.65" shape-rendering="crispEdges"/><rect fill="#0a0e1b" x="866.2" y="513.9" width="97.6" height="24.65" shape-rendering="crispEdges"/><rect fill="#0a0e1b" x="963.8" y="513.9" width="12.2" height="24.65" shape-rendering="crispEdges"/><rect fill="#0a0e1b" x="0" y="538.3" width="12.2" height="24.65" shape-rendering="crispEdges"/><rect fill="#0f1525" x="12.2" y="538.3" width="12.2" height="24.65" shape-rendering="crispEdges"/><rect fill="#0f1525" x="24.4" y="538.3" width="24.4" height="24.65" shape-rendering="crispEdges"/><rect fill="#003054" x="48.8" y="538.3" width="12.2" height="24.65" shape-rendering="crispEdges"/><rect fill="#003054" x="61" y="538.3" width="12.2" height="24.65" shape-rendering="crispEdges"/><rect fill="#003054" x="73.2" y="538.3" width="12.2" height="24.65" shape-rendering="crispEdges"/><rect fill="#003054" x="85.4" y="538.3" width="12.2" height="24.65" shape-rendering="crispEdges"/><rect fill="#003054" x="97.6" y="538.3" width="12.2" height="24.65" shape-rendering="crispEdges"/><rect fill="#003054" x="109.8" y="538.3" width="12.2" height="24.65" shape-rendering="crispEdges"/><rect fill="#003054" x="122" y="538.3" width="12.2" height="24.65" shape-rendering="crispEdges"/><rect fill="#003054" x="134.2" y="538.3" width="12.2" height="24.65" shape-rendering="crispEdges"/><rect fill="#003054" x="146.4" y="538.3" width="12.2" height="24.65" shape-rendering="crispEdges"/><rect fill="#003054" x="158.6" y="538.3" width="12.2" height="24.65" shape-rendering="crispEdges"/><rect fill="#003054" x="170.8" y="538.3" width="12.2" height="24.65" shape-rendering="crispEdges"/><rect fill="#003054" x="183" y="538.3" width="12.2" height="24.65" shape-rendering="crispEdges"/><rect fill="#003054" x="195.2" y="538.3" width="12.2" height="24.65" shape-rendering="crispEdges"/><rect fill="#003054" x="207.4" y="538.3" width="12.2" height="24.65" shape-rendering="crispEdges"/><rect fill="#003054" x="219.6" y="538.3" width="12.2" height="24.65" shape-rendering="crispEdges"/><rect fill="#003054" x="231.8" y="538.3" width="12.2" height="24.65" shape-rendering="crispEdges"/><rect fill="#003054" x="244" y="538.3" width="12.2" height="24.65" shape-rendering="crispEdges"/><rect fill="#003054" x="256.2" y="538.3" width="12.2" height="24.65" shape-rendering="crispEdges"/><rect fill="#003054" x="268.4" y="538.3" width="12.2" height="24.65" shape-rendering="crispEdges"/><rect fill="#003054" x="280.6" y="538.3" width="12.2" height="24.65" shape-rendering="crispEdges"/><rect fill="#003054" x="292.8" y="538.3" width="12.2" height="24.65" shape-rendering="crispEdges"/><rect fill="#003054" x="305" y="538.3" width="12.2" height="24.65" shape-rendering="crispEdges"/><rect fill="#003054" x="317.2" y="538.3" width="12.2" height="24.65" shape-rendering="crispEdges"/><rect fill="#003054" x="329.4" y="538.3" width="12.2" height="24.65" shape-rendering="crispEdges"/><rect fill="#003054" x="341.6" y="538.3" width="12.2" height="24.65" shape-rendering="crispEdges"/><rect fill="#003054" x="353.8" y="538.3" width="12.2" height="24.65" shape-rendering="crispEdges"/><rect fill="#003054" x="366" y="538.3" width="12.2" height="24.65" shape-rendering="crispEdges"/><rect fill="#003054" x="378.2" y="538.3" width="12.2" height="24.65" shape-rendering="crispEdges"/><rect fill="#003054" x="390.4" y="538.3" width="12.2" height="24.65" shape-rendering="crispEdges"/><rect fill="#000000" x="402.6" y="538.3" width="12.2" height="24.65" shape-rendering="crispEdges"/><rect fill="#000000" x="414.8" y="538.3" width="12.2" height="24.65" shape-rendering="crispEdges"/><rect fill="#000000" x="427" y="538.3" width="12.2" height="24.65" shape-rendering="crispEdges"/><rect fill="#000000" x="439.2" y="538.3" width="12.2" height="24.65" shape-rendering="crispEdges"/><rect fill="#000000" x="451.4" y="538.3" width="12.2" height="24.65" shape-rendering="crispEdges"/><rect fill="#000000" x="463.6" y="538.3" width="12.2" height="24.65" shape-rendering="crispEdges"/><rect fill="#000000" x="475.8" y="538.3" width="12.2" height="24.65" shape-rendering="crispEdges"/><rect fill="#000000" x="488" y="538.3" width="12.2" height="24.65" shape-rendering="crispEdges"/><rect fill="#000000" x="500.2" y="538.3" width="12.2" height="24.65" shape-rendering="crispEdges"/><rect fill="#000000" x="512.4" y="538.3" width="12.2" height="24.65" shape-rendering="crispEdges"/><rect fill="#000000" x="524.6" y="538.3" width="12.2" height="24.65" shape-rendering="crispEdges"/><rect fill="#000000" x="536.8" y="538.3" width="12.2" height="24.65" shape-rendering="crispEdges"/><rect fill="#000000" x="549" y="538.3" width="12.2" height="24.65" shape-rendering="crispEdges"/><rect fill="#000000" x="561.2" y="538.3" width="12.2" height="24.65" shape-rendering="crispEdges"/><rect fill="#000000" x="573.4" y="538.3" width="12.2" height="24.65" shape-rendering="crispEdges"/><rect fill="#000000" x="585.6" y="538.3" width="12.2" height="24.65" shape-rendering="crispEdges"/><rect fill="#000000" x="597.8" y="538.3" width="12.2" height="24.65" shape-rendering="crispEdges"/><rect fill="#000000" x="610" y="538.3" width="12.2" height="24.65" shape-rendering="crispEdges"/><rect fill="#000000" x="622.2" y="538.3" width="12.2" height="24.65" shape-rendering="crispEdges"/><rect fill="#000000" x="634.4" y="538.3" width="12.2" height="24.65" shape-rendering="crispEdges"/><rect fill="#000000" x="646.6" y="538.3" width="12.2" height="24.65" shape-rendering="crispEdges"/><rect fill="#000000" x="658.8" y="538.3" width="12.2" height="24.65" shape-rendering="crispEdges"/><rect fill="#000000" x="671" y="538.3" width="12.2" height="24.65" shape-rendering="crispEdges"/><rect fill="#000000" x="683.2" y="538.3" width="12.2" height="24.65" shape-rendering="crispEdges"/><rect fill="#000000" x="695.4" y="538.3" width="12.2" height="24.65" shape-rendering="crispEdges"/><rect fill="#000000" x="707.6" y="538.3" width="12.2" height="24.65" shape-rendering="crispEdges"/><rect fill="#000000" x="719.8" y="538.3" width="12.2" height="24.65" shape-rendering="crispEdges"/><rect fill="#000000" x="732" y="538.3" width="12.2" height="24.65" shape-rendering="crispEdges"/><rect fill="#000000" x="744.2" y="538.3" width="12.2" height="24.65" shape-rendering="crispEdges"/><rect fill="#000000" x="756.4" y="538.3" width="12.2" height="24.65" shape-rendering="crispEdges"/><rect fill="#000000" x="768.6" y="538.3" width="12.2" height="24.65" shape-rendering="crispEdges"/><rect fill="#000000" x="780.8" y="538.3" width="12.2" height="24.65" shape-rendering="crispEdges"/><rect fill="#000000" x="793" y="538.3" width="12.2" height="24.65" shape-rendering="crispEdges"/><rect fill="#000000" x="805.2" y="538.3" width="12.2" height="24.65" shape-rendering="crispEdges"/><rect fill="#000000" x="817.4" y="538.3" width="12.2" height="24.65" shape-rendering="crispEdges"/><rect fill="#0f1525" x="829.6" y="538.3" width="24.4" height="24.65" shape-rendering="crispEdges"/><rect fill="#0f1525" x="854" y="538.3" width="12.2" height="24.65" shape-rendering="crispEdges"/><rect fill="#0a0e1b" x="866.2" y="538.3" width="97.6" height="24.65" shape-rendering="crispEdges"/><rect fill="#0a0e1b" x="963.8" y="538.3" width="12.2" height="24.65" shape-rendering="crispEdges"/><rect fill="#0a0e1b" x="0" y="562.7" width="12.2" height="24.65" shape-rendering="crispEdges"/><rect fill="#0f1525" x="12.2" y="562.7" width="12.2" height="24.65" shape-rendering="crispEdges"/><rect fill="#0f1525" x="24.4" y="562.7" width="829.6" height="24.65" shape-rendering="crispEdges"/><rect fill="#0f1525" x="854" y="562.7" width="12.2" height="24.65" shape-rendering="crispEdges"/><rect fill="#0a0e1b" x="866.2" y="562.7" width="97.6" height="24.65" shape-rendering="crispEdges"/><rect fill="#0a0e1b" x="963.8" y="562.7" width="12.2" height="24.65" shape-rendering="crispEdges"/><rect fill="#0a0e1b" x="0" y="587.1" width="12.2" height="24.65" shape-rendering="crispEdges"/><rect fill="#0f1525" x="12.2" y="587.1" width="12.2" height="24.65" shape-rendering="crispEdges"/><rect fill="#0f1525" x="24.4" y="587.1" width="829.6" height="24.65" shape-rendering="crispEdges"/><rect fill="#0f1525" x="854" y="587.1" width="12.2" height="24.65" shape-rendering="crispEdges"/><rect fill="#0a0e1b" x="866.2" y="587.1" width="97.6" height="24.65" shape-rendering="crispEdges"/><rect fill="#0a0e1b" x="963.8" y="587.1" width="12.2" height="24.65" shape-rendering="crispEdges"/><rect fill="#0a0e1b" x="0" y="611.5" width="12.2" height="24.65" shape-rendering="crispEdges"/><rect fill="#0a0e1b" x="12.2" y="611.5" width="951.6" height="24.65" shape-rendering="crispEdges"/><rect fill="#0a0e1b" x="963.8" y="611.5" width="12.2" height="24.65" shape-rendering="crispEdges"/><rect fill="#0a0e1b" x="0" y="635.9" width="12.2" height="24.65" shape-rendering="crispEdges"/><rect fill="#0a0e1b" x="12.2" y="635.9" width="951.6" height="24.65" shape-rendering="crispEdges"/><rect fill="#0a0e1b" x="963.8" y="635.9" width="12.2" height="24.65" shape-rendering="crispEdges"/><rect fill="#0a0e1b" x="0" y="660.3" width="12.2" height="24.65" shape-rendering="crispEdges"/><rect fill="#0a0e1b" x="12.2" y="660.3" width="951.6" height="24.65" shape-rendering="crispEdges"/><rect fill="#0a0e1b" x="963.8" y="660.3" width="12.2" height="24.65" shape-rendering="crispEdges"/><rect fill="#0a0e1b" x="0" y="684.7" width="12.2" height="24.65" shape-rendering="crispEdges"/><rect fill="#242f38" x="12.2" y="684.7" width="36.6" height="24.65" shape-rendering="crispEdges"/><rect fill="#242f38" x="48.8" y="684.7" width="183" height="24.65" shape-rendering="crispEdges"/><rect fill="#242f38" x="231.8" y="684.7" width="36.6" height="24.65" shape-rendering="crispEdges"/><rect fill="#242f38" x="268.4" y="684.7" width="170.8" height="24.65" shape-rendering="crispEdges"/><rect fill="#242f38" x="439.2" y="684.7" width="36.6" height="24.65" shape-rendering="crispEdges"/><rect fill="#242f38" x="475.8" y="684.7" width="122" height="24.65" shape-rendering="crispEdges"/><rect fill="#242f38" x="597.8" y="684.7" width="36.6" height="24.65" shape-rendering="crispEdges"/><rect fill="#242f38" x="634.4" y="684.7" width="61" height="24.65" shape-rendering="crispEdges"/><rect fill="#242f38" x="695.4" y="684.7" width="122" height="24.65" shape-rendering="crispEdges"/><rect fill="#242f38" x="817.4" y="684.7" width="12.2" height="24.65" shape-rendering="crispEdges"/><rect fill="#242f38" x="829.6" y="684.7" width="24.4" height="24.65" shape-rendering="crispEdges"/><rect fill="#242f38" x="854" y="684.7" width="97.6" height="24.65" shape-rendering="crispEdges"/><rect fill="#242f38" x="951.6" y="684.7" width="12.2" height="24.65" shape-rendering="crispEdges"/><rect fill="#0a0e1b" x="963.8" y="684.7" width="12.2" height="24.65" shape-rendering="crispEdges"/><rect fill="#0a0e1b" x="0" y="709.1" width="976" height="24.65" shape-rendering="crispEdges"/>
    <g class="terminal-2715570577-matrix">
    <text class="terminal-2715570577-r1" x="976" y="20" textLength="12.2" clip-path="url(#terminal-2715570577-line-0)">
</text><text class="terminal-2715570577-r2" x="12.2" y="44.4" textLength="12.2" clip-path="url(#terminal-2715570577-line-1)">╭</text><text class="terminal-2715570577-r2" x="24.4" y="44.4" textLength="829.6" clip-path="url(#terminal-2715570577-line-1)">────────────────────────────────────────────────────────────────────</text><text class="terminal-2715570577-r2" x="854" y="44.4" textLength="12.2" clip-path="url(#terminal-2715570577-line-1)">╮</text><text class="terminal-2715570577-r1" x="976" y="44.4" textLength="12.2" clip-path="url(#terminal-2715570577-line-1)">
</text><text class="terminal-2715570577-r2" x="12.2" y="68.8" textLength="12.2" clip-path="url(#terminal-2715570577-line-2)">│</text><text class="terminal-2715570577-r2" x="854" y="68.8" textLength="12.2" clip-path="url(#terminal-2715570577-line-2)">│</text><text class="terminal-2715570577-r1" x="976" y="68.8" textLength="12.2" clip-path="url(#terminal-2715570577-line-2)">
</text><text class="terminal-2715570577-r2" x="12.2" y="93.2" textLength="12.2" clip-path="url(#terminal-2715570577-line-3)">│</text><text class="terminal-2715570577-r3" x="48.8" y="93.2" textLength="549" clip-path="url(#terminal-2715570577-line-3)">Classification&#160;legend&#160;—&#160;N8&#160;example&#160;enrichment</text><text class="terminal-2715570577-r2" x="854" y="93.2" textLength="12.2" clip-path="url(#terminal-2715570577-line-3)">│</text><text class="terminal-2715570577-r1" x="976" y="93.2" textLength="12.2" clip-path="url(#terminal-2715570577-line-3)">
</text><text class="terminal-2715570577-r2" x="12.2" y="117.6" textLength="12.2" clip-path="url(#terminal-2715570577-line-4)">│</text><text class="terminal-2715570577-r2" x="854" y="117.6" textLength="12.2" clip-path="url(#terminal-2715570577-line-4)">│</text><text class="terminal-2715570577-r1" x="976" y="117.6" textLength="12.2" clip-path="url(#terminal-2715570577-line-4)">
</text><text class="terminal-2715570577-r2" x="12.2" y="142" textLength="12.2" clip-path="url(#terminal-2715570577-line-5)">│</text><text class="terminal-2715570577-r4" x="48.8" y="142" textLength="109.8" clip-path="url(#terminal-2715570577-line-5)">Workspace</text><text class="terminal-2715570577-r2" x="854" y="142" textLength="12.2" clip-path="url(#terminal-2715570577-line-5)">│</text><text class="terminal-2715570577-r1" x="976" y="142" textLength="12.2" clip-path="url(#terminal-2715570577-line-5)">
</text><text class="terminal-2715570577-r2" x="12.2" y="166.4" textLength="12.2" clip-path="url(#terminal-2715570577-line-6)">│</text><text class="terminal-2715570577-r5" x="48.8" y="166.4" textLength="585.6" clip-path="url(#terminal-2715570577-line-6)">The&#160;top&#160;“Loaded”&#160;panel&#160;—&#160;one&#160;slot&#160;per&#160;file&#160;type:</text><text class="terminal-2715570577-r2" x="854" y="166.4" textLength="12.2" clip-path="url(#terminal-2715570577-line-6)">│</text><text class="terminal-2715570577-r1" x="976" y="166.4" textLength="12.2" clip-path="url(#terminal-2715570577-line-6)">
</text><text class="terminal-2715570577-r2" x="12.2" y="190.8" textLength="12.2" clip-path="url(#terminal-2715570577-line-7)">│</text><text class="terminal-2715570577-r2" x="854" y="190.8" textLength="12.2" clip-path="url(#terminal-2715570577-line-7)">│</text><text class="terminal-2715570577-r1" x="976" y="190.8" textLength="12.2" clip-path="url(#terminal-2715570577-line-7)">
</text><text class="terminal-2715570577-r2" x="12.2" y="215.2" textLength="12.2" clip-path="url(#terminal-2715570577-line-8)">│</text><text class="terminal-2715570577-r4" x="48.8" y="215.2" textLength="36.6" clip-path="url(#terminal-2715570577-line-8)">A2L</text><text class="terminal-2715570577-r2" x="854" y="215.2" textLength="12.2" clip-path="url(#terminal-2715570577-line-8)">│</text><text class="terminal-2715570577-r1" x="976" y="215.2" textLength="12.2" clip-path="url(#terminal-2715570577-line-8)">
</text><text class="terminal-2715570577-r2" x="12.2" y="239.6" textLength="12.2" clip-path="url(#terminal-2715570577-line-9)">│</text><text class="terminal-2715570577-r5" x="48.8" y="239.6" textLength="646.6" clip-path="url(#terminal-2715570577-line-9)">An&#160;A2L&#160;tag&#160;row&#160;—&#160;the&#160;columns&#160;you&#160;see&#160;in&#160;the&#160;Explorer:</text><text class="terminal-2715570577-r2" x="854" y="239.6" textLength="12.2" clip-path="url(#terminal-2715570577-line-9)">│</text><text class="terminal-2715570577-r1" x="976" y="239.6" textLength="12.2" clip-path="url(#terminal-2715570577-line-9)">
</text><text class="terminal-2715570577-r2" x="12.2" y="264" textLength="12.2" clip-path="url(#terminal-2715570577-line-10)">│</text><text class="terminal-2715570577-r2" x="854" y="264" textLength="12.2" clip-path="url(#terminal-2715570577-line-10)">│</text><text class="terminal-2715570577-r1" x="976" y="264" textLength="12.2" clip-path="url(#terminal-2715570577-line-10)">
</text><text class="terminal-2715570577-r2" x="12.2" y="288.4" textLength="12.2" clip-path="url(#terminal-2715570577-line-11)">│</text><text class="terminal-2715570577-r6" x="48.8" y="288.4" textLength="780.8" clip-path="url(#terminal-2715570577-line-11)">RPM&#160;✗&#160;mismatch&#160;&#160;&#160;&#160;&#160;&#160;&#160;Red&#160;—&#160;schema/structural&#160;failure:&#160;malformed&#160;</text><text class="terminal-2715570577-r2" x="854" y="288.4" textLength="12.2" clip-path="url(#terminal-2715570577-line-11)">│</text><text class="terminal-2715570577-r1" x="976" y="288.4" textLength="12.2" clip-path="url(#terminal-2715570577-line-11)">
</text><text class="terminal-2715570577-r2" x="12.2" y="312.8" textLength="12.2" clip-path="url(#terminal-2715570577-line-12)">│</text><text class="terminal-2715570577-r7" x="48.8" y="312.8" textLength="780.8" clip-path="url(#terminal-2715570577-line-12)">RPM&#160;✓&#160;present&#160;&#160;&#160;&#160;&#160;&#160;&#160;&#160;Green&#160;—&#160;memory&#160;checked&#160;—&#160;tag/range&#160;fully&#160;fo</text><text class="terminal-2715570577-r2" x="854" y="312.8" textLength="12.2" clip-path="url(#terminal-2715570577-line-12)">│</text><text class="terminal-2715570577-r1" x="976" y="312.8" textLength="12.2" clip-path="url(#terminal-2715570577-line-12)">
</text><text class="terminal-2715570577-r2" x="12.2" y="337.2" textLength="12.2" clip-path="url(#terminal-2715570577-line-13)">│</text><text class="terminal-2715570577-r8" x="48.8" y="337.2" textLength="780.8" clip-path="url(#terminal-2715570577-line-13)">RPM&#160;valid&#160;&#160;&#160;&#160;&#160;&#160;&#160;&#160;&#160;&#160;&#160;&#160;White&#160;—&#160;valid&#160;A2L&#160;record&#160;with&#160;no&#160;hard&#160;incon</text><text class="terminal-2715570577-r2" x="854" y="337.2" textLength="12.2" clip-path="url(#terminal-2715570577-line-13)">│</text><text class="terminal-2715570577-r1" x="976" y="337.2" textLength="12.2" clip-path="url(#terminal-2715570577-line-13)">
</text><text class="terminal-2715570577-r2" x="12.2" y="361.6" textLength="12.2" clip-path="url(#terminal-2715570577-line-14)">│</text><text class="terminal-2715570577-r9" x="48.8" y="361.6" textLength="780.8" clip-path="url(#terminal-2715570577-line-14)">RPM&#160;&#160;·&#160;&#160;unchecked&#160;&#160;&#160;&#160;Grey&#160;—&#160;memory&#160;not&#160;checked&#160;yet,&#160;or&#160;no&#160;primar</text><text class="terminal-2715570577-r2" x="854" y="361.6" textLength="12.2" clip-path="url(#terminal-2715570577-line-14)">│</text><text class="terminal-2715570577-r1" x="976" y="361.6" textLength="12.2" clip-path="url(#terminal-2715570577-line-14)">
</text><text class="terminal-2715570577-r2" x="12.2" y="386" textLength="12.2" clip-path="url(#terminal-2715570577-line-15)">│</text><text class="terminal-2715570577-r2" x="854" y="386" textLength="12.2" clip-path="url(#terminal-2715570577-line-15)">│</text><text class="terminal-2715570577-r1" x="976" y="386" textLength="12.2" clip-path="url(#terminal-2715570577-line-15)">
</text><text class="terminal-2715570577-r2" x="12.2" y="410.4" textLength="12.2" clip-path="url(#terminal-2715570577-line-16)">│</text><text class="terminal-2715570577-r2" x="854" y="410.4" textLength="12.2" clip-path="url(#terminal-2715570577-line-16)">│</text><text class="terminal-2715570577-r1" x="976" y="410.4" textLength="12.2" clip-path="url(#terminal-2715570577-line-16)">
</text><text class="terminal-2715570577-r2" x="12.2" y="434.8" textLength="12.2" clip-path="url(#terminal-2715570577-line-17)">│</text><text class="terminal-2715570577-r2" x="854" y="434.8" textLength="12.2" clip-path="url(#terminal-2715570577-line-17)">│</text><text class="terminal-2715570577-r1" x="976" y="434.8" textLength="12.2" clip-path="url(#terminal-2715570577-line-17)">
</text><text class="terminal-2715570577-r2" x="12.2" y="459.2" textLength="12.2" clip-path="url(#terminal-2715570577-line-18)">│</text><text class="terminal-2715570577-r2" x="854" y="459.2" textLength="12.2" clip-path="url(#terminal-2715570577-line-18)">│</text><text class="terminal-2715570577-r1" x="976" y="459.2" textLength="12.2" clip-path="url(#terminal-2715570577-line-18)">
</text><text class="terminal-2715570577-r2" x="12.2" y="483.6" textLength="12.2" clip-path="url(#terminal-2715570577-line-19)">│</text><text class="terminal-2715570577-r2" x="854" y="483.6" textLength="12.2" clip-path="url(#terminal-2715570577-line-19)">│</text><text class="terminal-2715570577-r1" x="976" y="483.6" textLength="12.2" clip-path="url(#terminal-2715570577-line-19)">
</text><text class="terminal-2715570577-r2" x="12.2" y="508" textLength="12.2" clip-path="url(#terminal-2715570577-line-20)">│</text><text class="terminal-2715570577-r2" x="854" y="508" textLength="12.2" clip-path="url(#terminal-2715570577-line-20)">│</text><text class="terminal-2715570577-r1" x="976" y="508" textLength="12.2" clip-path="url(#terminal-2715570577-line-20)">
</text><text class="terminal-2715570577-r2" x="12.2" y="532.4" textLength="12.2" clip-path="url(#terminal-2715570577-line-21)">│</text><text class="terminal-2715570577-r2" x="854" y="532.4" textLength="12.2" clip-path="url(#terminal-2715570577-line-21)">│</text><text class="terminal-2715570577-r1" x="976" y="532.4" textLength="12.2" clip-path="url(#terminal-2715570577-line-21)">
</text><text class="terminal-2715570577-r2" x="12.2" y="556.8" textLength="12.2" clip-path="url(#terminal-2715570577-line-22)">│</text><text class="terminal-2715570577-r11" x="402.6" y="556.8" textLength="12.2" clip-path="url(#terminal-2715570577-line-22)">▊</text><text class="terminal-2715570577-r2" x="854" y="556.8" textLength="12.2" clip-path="url(#terminal-2715570577-line-22)">│</text><text class="terminal-2715570577-r1" x="976" y="556.8" textLength="12.2" clip-path="url(#terminal-2715570577-line-22)">
</text><text class="terminal-2715570577-r2" x="12.2" y="581.2" textLength="12.2" clip-path="url(#terminal-2715570577-line-23)">│</text><text class="terminal-2715570577-r2" x="854" y="581.2" textLength="12.2" clip-path="url(#terminal-2715570577-line-23)">│</text><text class="terminal-2715570577-r1" x="976" y="581.2" textLength="12.2" clip-path="url(#terminal-2715570577-line-23)">
</text><text class="terminal-2715570577-r2" x="12.2" y="605.6" textLength="12.2" clip-path="url(#terminal-2715570577-line-24)">╰</text><text class="terminal-2715570577-r2" x="24.4" y="605.6" textLength="829.6" clip-path="url(#terminal-2715570577-line-24)">────────────────────────────────────────────────────────────────────</text><text class="terminal-2715570577-r2" x="854" y="605.6" textLength="12.2" clip-path="url(#terminal-2715570577-line-24)">╯</text><text class="terminal-2715570577-r1" x="976" y="605.6" textLength="12.2" clip-path="url(#terminal-2715570577-line-24)">
</text><text class="terminal-2715570577-r1" x="976" y="630" textLength="12.2" clip-path="url(#terminal-2715570577-line-25)">
</text><text class="terminal-2715570577-r1" x="976" y="654.4" textLength="12.2" clip-path="url(#terminal-2715570577-line-26)">
</text><text class="terminal-2715570577-r1" x="976" y="678.8" textLength="12.2" clip-path="url(#terminal-2715570577-line-27)">
</text><text class="terminal-2715570577-r12" x="12.2" y="703.2" textLength="36.6" clip-path="url(#terminal-2715570577-line-28)">&#160;1&#160;</text><text class="terminal-2715570577-r13" x="48.8" y="703.2" textLength="183" clip-path="url(#terminal-2715570577-line-28)">A:&#160;card-on-top&#160;</text><text class="terminal-2715570577-r12" x="231.8" y="703.2" textLength="36.6" clip-path="url(#terminal-2715570577-line-28)">&#160;2&#160;</text><text class="terminal-2715570577-r13" x="268.4" y="703.2" textLength="170.8" clip-path="url(#terminal-2715570577-line-28)">B:&#160;two-column&#160;</text><text class="terminal-2715570577-r12" x="439.2" y="703.2" textLength="36.6" clip-path="url(#terminal-2715570577-line-28)">&#160;3&#160;</text><text class="terminal-2715570577-r13" x="475.8" y="703.2" textLength="122" clip-path="url(#terminal-2715570577-line-28)">C:&#160;inline&#160;</text><text class="terminal-2715570577-r12" x="597.8" y="703.2" textLength="36.6" clip-path="url(#terminal-2715570577-line-28)">&#160;q&#160;</text><text class="terminal-2715570577-r13" x="634.4" y="703.2" textLength="61" clip-path="url(#terminal-2715570577-line-28)">quit&#160;</text><text class="terminal-2715570577-r14" x="817.4" y="703.2" textLength="12.2" clip-path="url(#terminal-2715570577-line-28)">▏</text><text class="terminal-2715570577-r12" x="829.6" y="703.2" textLength="24.4" clip-path="url(#terminal-2715570577-line-28)">^p</text><text class="terminal-2715570577-r13" x="854" y="703.2" textLength="97.6" clip-path="url(#terminal-2715570577-line-28)">&#160;palette</text><text class="terminal-2715570577-r1" x="976" y="703.2" textLength="12.2" clip-path="url(#terminal-2715570577-line-28)">
</text>
    </g>
    </g>
</svg>
