<svg class="rich-terminal" viewBox="0 0 994 635.5999999999999" xmlns="http://www.w3.org/2000/svg">
    <!-- Generated with Rich https://www.textualize.io -->
    <style>

    @font-face {
        font-family: "Fira Code";
        src: local("FiraCode-Regular"),
                url("https://cdnjs.cloudflare.com/ajax/libs/firacode/6.2.0/woff2/FiraCode-Regular.woff2") format("woff2"),
                url("https://cdnjs.cloudflare.com/ajax/libs/firacode/6.2.0/woff/FiraCode-Regular.woff") format("woff");
        font-style: normal;
        font-weight: 400;
    }
    @font-face {
        font-family: "Fira Code";
        src: local("FiraCode-Bold"),
                url("https://cdnjs.cloudflare.com/ajax/libs/firacode/6.2.0/woff2/FiraCode-Bold.woff2") format("woff2"),
                url("https://cdnjs.cloudflare.com/ajax/libs/firacode/6.2.0/woff/FiraCode-Bold.woff") format("woff");
        font-style: bold;
        font-weight: 700;
    }

    .terminal-matrix {
        font-family: Fira Code, monospace;
        font-size: 20px;
        line-height: 24.4px;
        font-variant-east-asian: full-width;
    }

    .terminal-title {
        font-size: 18px;
        font-weight: bold;
        font-family: arial;
    }

    .terminal-r1 { fill: #c5c8c6 }
.terminal-r2 { fill: #e0e0e0 }
.terminal-r3 { fill: #2a2f3a }
.terminal-r4 { fill: #4ec9d4;font-weight: bold }
.terminal-r5 { fill: #c8ccd4 }
.terminal-r6 { fill: #171b23 }
.terminal-r7 { fill: #191919 }
.terminal-r8 { fill: #11141a;font-weight: bold }
.terminal-r9 { fill: #2d2d2d }
.terminal-r10 { fill: #e0e0e0;font-weight: bold }
.terminal-r11 { fill: #4ec9d4 }
.terminal-r12 { fill: #0d0d0d }
.terminal-r13 { fill: #1e1e1e }
.terminal-r14 { fill: #ffa62b;font-weight: bold }
.terminal-r15 { fill: #495259 }
    </style>

    <defs>
    <clipPath id="terminal-clip-terminal">
      <rect x="0" y="0" width="975.0" height="584.5999999999999" />
    </clipPath>
    <clipPath id="terminal-line-0">
    <rect x="0" y="1.5" width="976" height="24.65"/>
            </clipPath>
<clipPath id="terminal-line-1">
    <rect x="0" y="25.9" width="976" height="24.65"/>
            </clipPath>
<clipPath id="terminal-line-2">
    <rect x="0" y="50.3" width="976" height="24.65"/>
            </clipPath>
<clipPath id="terminal-line-3">
    <rect x="0" y="74.7" width="976" height="24.65"/>
            </clipPath>
<clipPath id="terminal-line-4">
    <rect x="0" y="99.1" width="976" height="24.65"/>
            </clipPath>
<clipPath id="terminal-line-5">
    <rect x="0" y="123.5" width="976" height="24.65"/>
            </clipPath>
<clipPath id="terminal-line-6">
    <rect x="0" y="147.9" width="976" height="24.65"/>
            </clipPath>
<clipPath id="terminal-line-7">
    <rect x="0" y="172.3" width="976" height="24.65"/>
            </clipPath>
<clipPath id="terminal-line-8">
    <rect x="0" y="196.7" width="976" height="24.65"/>
            </clipPath>
<clipPath id="terminal-line-9">
    <rect x="0" y="221.1" width="976" height="24.65"/>
            </clipPath>
<clipPath id="terminal-line-10">
    <rect x="0" y="245.5" width="976" height="24.65"/>
            </clipPath>
<clipPath id="terminal-line-11">
    <rect x="0" y="269.9" width="976" height="24.65"/>
            </clipPath>
<clipPath id="terminal-line-12">
    <rect x="0" y="294.3" width="976" height="24.65"/>
            </clipPath>
<clipPath id="terminal-line-13">
    <rect x="0" y="318.7" width="976" height="24.65"/>
            </clipPath>
<clipPath id="terminal-line-14">
    <rect x="0" y="343.1" width="976" height="24.65"/>
            </clipPath>
<clipPath id="terminal-line-15">
    <rect x="0" y="367.5" width="976" height="24.65"/>
            </clipPath>
<clipPath id="terminal-line-16">
    <rect x="0" y="391.9" width="976" height="24.65"/>
            </clipPath>
<clipPath id="terminal-line-17">
    <rect x="0" y="416.3" width="976" height="24.65"/>
            </clipPath>
<clipPath id="terminal-line-18">
    <rect x="0" y="440.7" width="976" height="24.65"/>
            </clipPath>
<clipPath id="terminal-line-19">
    <rect x="0" y="465.1" width="976" height="24.65"/>
            </clipPath>
<clipPath id="terminal-line-20">
    <rect x="0" y="489.5" width="976" height="24.65"/>
            </clipPath>
<clipPath id="terminal-line-21">
    <rect x="0" y="513.9" width="976" height="24.65"/>
            </clipPath>
<clipPath id="terminal-line-22">
    <rect x="0" y="538.3" width="976" height="24.65"/>
            </clipPath>
    </defs>

    <rect fill="#292929" stroke="rgba(255,255,255,0.35)" stroke-width="1" x="1" y="1" width="992" height="633.6" rx="8"/><text class="terminal-title" fill="#c5c8c6" text-anchor="middle" x="496" y="27">Hex&#160;Edit&#160;Tool</text>
            <g transform="translate(26,22)">
            <circle cx="0" cy="0" r="7" fill="#ff5f57"/>
            <circle cx="22" cy="0" r="7" fill="#febc2e"/>
            <circle cx="44" cy="0" r="7" fill="#28c840"/>
            </g>
        
    <g transform="translate(9, 41)" clip-path="url(#terminal-clip-terminal)">
    <rect fill="#11141a" x="0" y="1.5" width="976" height="24.65" shape-rendering="crispEdges"/><rect fill="#11141a" x="0" y="25.9" width="12.2" height="24.65" shape-rendering="crispEdges"/><rect fill="#242f38" x="12.2" y="25.9" width="12.2" height="24.65" shape-rendering="crispEdges"/><rect fill="#242f38" x="24.4" y="25.9" width="12.2" height="24.65" shape-rendering="crispEdges"/><rect fill="#242f38" x="36.6" y="25.9" width="61" height="24.65" shape-rendering="crispEdges"/><rect fill="#242f38" x="97.6" y="25.9" width="12.2" height="24.65" shape-rendering="crispEdges"/><rect fill="#242f38" x="109.8" y="25.9" width="280.6" height="24.65" shape-rendering="crispEdges"/><rect fill="#242f38" x="390.4" y="25.9" width="158.6" height="24.65" shape-rendering="crispEdges"/><rect fill="#242f38" x="549" y="25.9" width="292.8" height="24.65" shape-rendering="crispEdges"/><rect fill="#242f38" x="841.8" y="25.9" width="12.2" height="24.65" shape-rendering="crispEdges"/><rect fill="#242f38" x="854" y="25.9" width="0" height="24.65" shape-rendering="crispEdges"/><rect fill="#242f38" x="854" y="25.9" width="109.8" height="24.65" shape-rendering="crispEdges"/><rect fill="#11141a" x="963.8" y="25.9" width="12.2" height="24.65" shape-rendering="crispEdges"/><rect fill="#11141a" x="0" y="50.3" width="12.2" height="24.65" shape-rendering="crispEdges"/><rect fill="#171b23" x="12.2" y="50.3" width="951.6" height="24.65" shape-rendering="crispEdges"/><rect fill="#11141a" x="963.8" y="50.3" width="12.2" height="24.65" shape-rendering="crispEdges"/><rect fill="#11141a" x="0" y="74.7" width="12.2" height="24.65" shape-rendering="crispEdges"/><rect fill="#171b23" x="12.2" y="74.7" width="12.2" height="24.65" shape-rendering="crispEdges"/><rect fill="#171b23" x="24.4" y="74.7" width="12.2" height="24.65" shape-rendering="crispEdges"/><rect fill="#171b23" x="36.6" y="74.7" width="12.2" height="24.65" shape-rendering="crispEdges"/><rect fill="#171b23" x="48.8" y="74.7" width="12.2" height="24.65" shape-rendering="crispEdges"/><rect fill="#171b23" x="61" y="74.7" width="24.4" height="24.65" shape-rendering="crispEdges"/><rect fill="#171b23" x="85.4" y="74.7" width="183" height="24.65" shape-rendering="crispEdges"/><rect fill="#171b23" x="268.4" y="74.7" width="48.8" height="24.65" shape-rendering="crispEdges"/><rect fill="#171b23" x="317.2" y="74.7" width="134.2" height="24.65" shape-rendering="crispEdges"/><rect fill="#171b23" x="451.4" y="74.7" width="12.2" height="24.65" shape-rendering="crispEdges"/><rect fill="#171b23" x="463.6" y="74.7" width="24.4" height="24.65" shape-rendering="crispEdges"/><rect fill="#191919" x="488" y="74.7" width="12.2" height="24.65" shape-rendering="crispEdges"/><rect fill="#1e1e1e" x="500.2" y="74.7" width="207.4" height="24.65" shape-rendering="crispEdges"/><rect fill="#171b23" x="707.6" y="74.7" width="12.2" height="24.65" shape-rendering="crispEdges"/><rect fill="#191919" x="719.8" y="74.7" width="12.2" height="24.65" shape-rendering="crispEdges"/><rect fill="#1e1e1e" x="732" y="74.7" width="207.4" height="24.65" shape-rendering="crispEdges"/><rect fill="#171b23" x="939.4" y="74.7" width="12.2" height="24.65" shape-rendering="crispEdges"/><rect fill="#171b23" x="951.6" y="74.7" width="12.2" height="24.65" shape-rendering="crispEdges"/><rect fill="#11141a" x="963.8" y="74.7" width="12.2" height="24.65" shape-rendering="crispEdges"/><rect fill="#11141a" x="0" y="99.1" width="12.2" height="24.65" shape-rendering="crispEdges"/><rect fill="#171b23" x="12.2" y="99.1" width="951.6" height="24.65" shape-rendering="crispEdges"/><rect fill="#11141a" x="963.8" y="99.1" width="12.2" height="24.65" shape-rendering="crispEdges"/><rect fill="#11141a" x="0" y="123.5" width="12.2" height="24.65" shape-rendering="crispEdges"/><rect fill="#171b23" x="12.2" y="123.5" width="36.6" height="24.65" shape-rendering="crispEdges"/><rect fill="#171b23" x="48.8" y="123.5" width="12.2" height="24.65" shape-rendering="crispEdges"/><rect fill="#4ec9d4" x="61" y="123.5" width="366" height="24.65" shape-rendering="crispEdges"/><rect fill="#4ec9d4" x="427" y="123.5" width="158.6" height="24.65" shape-rendering="crispEdges"/><rect fill="#4ec9d4" x="585.6" y="123.5" width="378.2" height="24.65" shape-rendering="crispEdges"/><rect fill="#11141a" x="963.8" y="123.5" width="12.2" height="24.65" shape-rendering="crispEdges"/><rect fill="#11141a" x="0" y="147.9" width="12.2" height="24.65" shape-rendering="crispEdges"/><rect fill="#171b23" x="12.2" y="147.9" width="12.2" height="24.65" shape-rendering="crispEdges"/><rect fill="#171b23" x="24.4" y="147.9" width="12.2" height="24.65" shape-rendering="crispEdges"/><rect fill="#171b23" x="36.6" y="147.9" width="12.2" height="24.65" shape-rendering="crispEdges"/><rect fill="#171b23" x="48.8" y="147.9" width="12.2" height="24.65" shape-rendering="crispEdges"/><rect fill="#11141a" x="61" y="147.9" width="915" height="24.65" shape-rendering="crispEdges"/><rect fill="#11141a" x="0" y="172.3" width="12.2" height="24.65" shape-rendering="crispEdges"/><rect fill="#171b23" x="12.2" y="172.3" width="12.2" height="24.65" shape-rendering="crispEdges"/><rect fill="#171b23" x="24.4" y="172.3" width="12.2" height="24.65" shape-rendering="crispEdges"/><rect fill="#171b23" x="36.6" y="172.3" width="12.2" height="24.65" shape-rendering="crispEdges"/><rect fill="#171b23" x="48.8" y="172.3" width="12.2" height="24.65" shape-rendering="crispEdges"/><rect fill="#11141a" x="61" y="172.3" width="915" height="24.65" shape-rendering="crispEdges"/><rect fill="#11141a" x="0" y="196.7" width="12.2" height="24.65" shape-rendering="crispEdges"/><rect fill="#171b23" x="12.2" y="196.7" width="12.2" height="24.65" shape-rendering="crispEdges"/><rect fill="#171b23" x="24.4" y="196.7" width="12.2" height="24.65" shape-rendering="crispEdges"/><rect fill="#171b23" x="36.6" y="196.7" width="12.2" height="24.65" shape-rendering="crispEdges"/><rect fill="#171b23" x="48.8" y="196.7" width="12.2" height="24.65" shape-rendering="crispEdges"/><rect fill="#1e1e1e" x="61" y="196.7" width="780.8" height="24.65" shape-rendering="crispEdges"/><rect fill="#11141a" x="841.8" y="196.7" width="134.2" height="24.65" shape-rendering="crispEdges"/><rect fill="#11141a" x="0" y="221.1" width="12.2" height="24.65" shape-rendering="crispEdges"/><rect fill="#171b23" x="12.2" y="221.1" width="12.2" height="24.65" shape-rendering="crispEdges"/><rect fill="#171b23" x="24.4" y="221.1" width="12.2" height="24.65" shape-rendering="crispEdges"/><rect fill="#171b23" x="36.6" y="221.1" width="12.2" height="24.65" shape-rendering="crispEdges"/><rect fill="#171b23" x="48.8" y="221.1" width="12.2" height="24.65" shape-rendering="crispEdges"/><rect fill="#1e1e1e" x="61" y="221.1" width="12.2" height="24.65" shape-rendering="crispEdges"/><rect fill="#1e1e1e" x="73.2" y="221.1" width="158.6" height="24.65" shape-rendering="crispEdges"/><rect fill="#1e1e1e" x="231.8" y="221.1" width="73.2" height="24.65" shape-rendering="crispEdges"/><rect fill="#1e1e1e" x="305" y="221.1" width="97.6" height="24.65" shape-rendering="crispEdges"/><rect fill="#1e1e1e" x="402.6" y="221.1" width="85.4" height="24.65" shape-rendering="crispEdges"/><rect fill="#1e1e1e" x="488" y="221.1" width="122" height="24.65" shape-rendering="crispEdges"/><rect fill="#1e1e1e" x="610" y="221.1" width="85.4" height="24.65" shape-rendering="crispEdges"/><rect fill="#1e1e1e" x="695.4" y="221.1" width="97.6" height="24.65" shape-rendering="crispEdges"/><rect fill="#1e1e1e" x="793" y="221.1" width="48.8" height="24.65" shape-rendering="crispEdges"/><rect fill="#11141a" x="841.8" y="221.1" width="134.2" height="24.65" shape-rendering="crispEdges"/><rect fill="#11141a" x="0" y="245.5" width="12.2" height="24.65" shape-rendering="crispEdges"/><rect fill="#11141a" x="12.2" y="245.5" width="12.2" height="24.65" shape-rendering="crispEdges"/><rect fill="#11141a" x="24.4" y="245.5" width="12.2" height="24.65" shape-rendering="crispEdges"/><rect fill="#11141a" x="36.6" y="245.5" width="12.2" height="24.65" shape-rendering="crispEdges"/><rect fill="#171b23" x="48.8" y="245.5" width="12.2" height="24.65" shape-rendering="crispEdges"/><rect fill="#1e1e1e" x="61" y="245.5" width="780.8" height="24.65" shape-rendering="crispEdges"/><rect fill="#11141a" x="841.8" y="245.5" width="134.2" height="24.65" shape-rendering="crispEdges"/><rect fill="#11141a" x="0" y="269.9" width="12.2" height="24.65" shape-rendering="crispEdges"/><rect fill="#171b23" x="12.2" y="269.9" width="12.2" height="24.65" shape-rendering="crispEdges"/><rect fill="#171b23" x="24.4" y="269.9" width="12.2" height="24.65" shape-rendering="crispEdges"/><rect fill="#171b23" x="36.6" y="269.9" width="12.2" height="24.65" shape-rendering="crispEdges"/><rect fill="#171b23" x="48.8" y="269.9" width="12.2" height="24.65" shape-rendering="crispEdges"/><rect fill="#11141a" x="61" y="269.9" width="902.8" height="24.65" shape-rendering="crispEdges"/><rect fill="#11141a" x="963.8" y="269.9" width="12.2" height="24.65" shape-rendering="crispEdges"/><rect fill="#11141a" x="0" y="294.3" width="12.2" height="24.65" shape-rendering="crispEdges"/><rect fill="#171b23" x="12.2" y="294.3" width="12.2" height="24.65" shape-rendering="crispEdges"/><rect fill="#171b23" x="24.4" y="294.3" width="12.2" height="24.65" shape-rendering="crispEdges"/><rect fill="#171b23" x="36.6" y="294.3" width="12.2" height="24.65" shape-rendering="crispEdges"/><rect fill="#171b23" x="48.8" y="294.3" width="12.2" height="24.65" shape-rendering="crispEdges"/><rect fill="#11141a" x="61" y="294.3" width="902.8" height="24.65" shape-rendering="crispEdges"/><rect fill="#11141a" x="963.8" y="294.3" width="12.2" height="24.65" shape-rendering="crispEdges"/><rect fill="#11141a" x="0" y="318.7" width="12.2" height="24.65" shape-rendering="crispEdges"/><rect fill="#171b23" x="12.2" y="318.7" width="36.6" height="24.65" shape-rendering="crispEdges"/><rect fill="#171b23" x="48.8" y="318.7" width="12.2" height="24.65" shape-rendering="crispEdges"/><rect fill="#11141a" x="61" y="318.7" width="12.2" height="24.65" shape-rendering="crispEdges"/><rect fill="#11141a" x="73.2" y="318.7" width="890.6" height="24.65" shape-rendering="crispEdges"/><rect fill="#11141a" x="963.8" y="318.7" width="12.2" height="24.65" shape-rendering="crispEdges"/><rect fill="#11141a" x="0" y="343.1" width="12.2" height="24.65" shape-rendering="crispEdges"/><rect fill="#171b23" x="12.2" y="343.1" width="951.6" height="24.65" shape-rendering="crispEdges"/><rect fill="#11141a" x="963.8" y="343.1" width="12.2" height="24.65" shape-rendering="crispEdges"/><rect fill="#11141a" x="0" y="367.5" width="12.2" height="24.65" shape-rendering="crispEdges"/><rect fill="#171b23" x="12.2" y="367.5" width="12.2" height="24.65" shape-rendering="crispEdges"/><rect fill="#171b23" x="24.4" y="367.5" width="73.2" height="24.65" shape-rendering="crispEdges"/><rect fill="#171b23" x="97.6" y="367.5" width="866.2" height="24.65" shape-rendering="crispEdges"/><rect fill="#11141a" x="963.8" y="367.5" width="12.2" height="24.65" shape-rendering="crispEdges"/><rect fill="#11141a" x="0" y="391.9" width="12.2" height="24.65" shape-rendering="crispEdges"/><rect fill="#171b23" x="12.2" y="391.9" width="951.6" height="24.65" shape-rendering="crispEdges"/><rect fill="#11141a" x="963.8" y="391.9" width="12.2" height="24.65" shape-rendering="crispEdges"/><rect fill="#11141a" x="0" y="416.3" width="12.2" height="24.65" shape-rendering="crispEdges"/><rect fill="#171b23" x="12.2" y="416.3" width="12.2" height="24.65" shape-rendering="crispEdges"/><rect fill="#171b23" x="24.4" y="416.3" width="390.4" height="24.65" shape-rendering="crispEdges"/><rect fill="#171b23" x="414.8" y="416.3" width="36.6" height="24.65" shape-rendering="crispEdges"/><rect fill="#171b23" x="451.4" y="416.3" width="24.4" height="24.65" shape-rendering="crispEdges"/><rect fill="#171b23" x="475.8" y="416.3" width="12.2" height="24.65" shape-rendering="crispEdges"/><rect fill="#171b23" x="488" y="416.3" width="97.6" height="24.65" shape-rendering="crispEdges"/><rect fill="#171b23" x="585.6" y="416.3" width="378.2" height="24.65" shape-rendering="crispEdges"/><rect fill="#11141a" x="963.8" y="416.3" width="12.2" height="24.65" shape-rendering="crispEdges"/><rect fill="#11141a" x="0" y="440.7" width="12.2" height="24.65" shape-rendering="crispEdges"/><rect fill="#171b23" x="12.2" y="440.7" width="951.6" height="24.65" shape-rendering="crispEdges"/><rect fill="#11141a" x="963.8" y="440.7" width="12.2" height="24.65" shape-rendering="crispEdges"/><rect fill="#11141a" x="0" y="465.1" width="12.2" height="24.65" shape-rendering="crispEdges"/><rect fill="#171b23" x="12.2" y="465.1" width="951.6" height="24.65" shape-rendering="crispEdges"/><rect fill="#11141a" x="963.8" y="465.1" width="12.2" height="24.65" shape-rendering="crispEdges"/><rect fill="#11141a" x="0" y="489.5" width="12.2" height="24.65" shape-rendering="crispEdges"/><rect fill="#171b23" x="12.2" y="489.5" width="951.6" height="24.65" shape-rendering="crispEdges"/><rect fill="#11141a" x="963.8" y="489.5" width="12.2" height="24.65" shape-rendering="crispEdges"/><rect fill="#11141a" x="0" y="513.9" width="12.2" height="24.65" shape-rendering="crispEdges"/><rect fill="#171b23" x="12.2" y="513.9" width="951.6" height="24.65" shape-rendering="crispEdges"/><rect fill="#11141a" x="963.8" y="513.9" width="12.2" height="24.65" shape-rendering="crispEdges"/><rect fill="#11141a" x="0" y="538.3" width="12.2" height="24.65" shape-rendering="crispEdges"/><rect fill="#242f38" x="12.2" y="538.3" width="48.8" height="24.65" shape-rendering="crispEdges"/><rect fill="#242f38" x="61" y="538.3" width="97.6" height="24.65" shape-rendering="crispEdges"/><rect fill="#242f38" x="158.6" y="538.3" width="48.8" height="24.65" shape-rendering="crispEdges"/><rect fill="#242f38" x="207.4" y="538.3" width="97.6" height="24.65" shape-rendering="crispEdges"/><rect fill="#242f38" x="305" y="538.3" width="48.8" height="24.65" shape-rendering="crispEdges"/><rect fill="#242f38" x="353.8" y="538.3" width="61" height="24.65" shape-rendering="crispEdges"/><rect fill="#242f38" x="414.8" y="538.3" width="48.8" height="24.65" shape-rendering="crispEdges"/><rect fill="#242f38" x="463.6" y="538.3" width="61" height="24.65" shape-rendering="crispEdges"/><rect fill="#242f38" x="524.6" y="538.3" width="36.6" height="24.65" shape-rendering="crispEdges"/><rect fill="#242f38" x="561.2" y="538.3" width="61" height="24.65" shape-rendering="crispEdges"/><rect fill="#242f38" x="622.2" y="538.3" width="36.6" height="24.65" shape-rendering="crispEdges"/><rect fill="#242f38" x="658.8" y="538.3" width="73.2" height="24.65" shape-rendering="crispEdges"/><rect fill="#242f38" x="732" y="538.3" width="36.6" height="24.65" shape-rendering="crispEdges"/><rect fill="#242f38" x="768.6" y="538.3" width="48.8" height="24.65" shape-rendering="crispEdges"/><rect fill="#242f38" x="817.4" y="538.3" width="12.2" height="24.65" shape-rendering="crispEdges"/><rect fill="#242f38" x="829.6" y="538.3" width="24.4" height="24.65" shape-rendering="crispEdges"/><rect fill="#242f38" x="854" y="538.3" width="97.6" height="24.65" shape-rendering="crispEdges"/><rect fill="#242f38" x="951.6" y="538.3" width="12.2" height="24.65" shape-rendering="crispEdges"/><rect fill="#11141a" x="963.8" y="538.3" width="12.2" height="24.65" shape-rendering="crispEdges"/><rect fill="#11141a" x="0" y="562.7" width="976" height="24.65" shape-rendering="crispEdges"/>
    <g class="terminal-matrix">
    <text class="terminal-r1" x="976" y="20" textLength="12.2" clip-path="url(#terminal-line-0)">
</text><text class="terminal-r2" x="24.4" y="44.4" textLength="12.2" clip-path="url(#terminal-line-1)">⭘</text><text class="terminal-r2" x="390.4" y="44.4" textLength="158.6" clip-path="url(#terminal-line-1)">Hex&#160;Edit&#160;Tool</text><text class="terminal-r1" x="976" y="44.4" textLength="12.2" clip-path="url(#terminal-line-1)">
</text><text class="terminal-r3" x="12.2" y="68.8" textLength="951.6" clip-path="url(#terminal-line-2)">╭────────────────────────────────────────────────────────────────────────────╮</text><text class="terminal-r1" x="976" y="68.8" textLength="12.2" clip-path="url(#terminal-line-2)">
</text><text class="terminal-r3" x="12.2" y="93.2" textLength="12.2" clip-path="url(#terminal-line-3)">│</text><text class="terminal-r4" x="36.6" y="93.2" textLength="12.2" clip-path="url(#terminal-line-3)">›</text><text class="terminal-r5" x="85.4" y="93.2" textLength="183" clip-path="url(#terminal-line-3)">Project:&#160;(none)</text><text class="terminal-r5" x="317.2" y="93.2" textLength="134.2" clip-path="url(#terminal-line-3)">A2L:&#160;(none)</text><text class="terminal-r6" x="488" y="93.2" textLength="12.2" clip-path="url(#terminal-line-3)">▊</text><text class="terminal-r7" x="500.2" y="93.2" textLength="207.4" clip-path="url(#terminal-line-3)">▔▔▔▔▔▔▔▔▔▔▔▔▔▔▔▔▔</text><text class="terminal-r7" x="707.6" y="93.2" textLength="12.2" clip-path="url(#terminal-line-3)">▎</text><text class="terminal-r6" x="719.8" y="93.2" textLength="12.2" clip-path="url(#terminal-line-3)">▊</text><text class="terminal-r7" x="732" y="93.2" textLength="207.4" clip-path="url(#terminal-line-3)">▔▔▔▔▔▔▔▔▔▔▔▔▔▔▔▔▔</text><text class="terminal-r7" x="939.4" y="93.2" textLength="12.2" clip-path="url(#terminal-line-3)">▎</text><text class="terminal-r3" x="951.6" y="93.2" textLength="12.2" clip-path="url(#terminal-line-3)">│</text><text class="terminal-r1" x="976" y="93.2" textLength="12.2" clip-path="url(#terminal-line-3)">
</text><text class="terminal-r3" x="12.2" y="117.6" textLength="951.6" clip-path="url(#terminal-line-4)">╰────────────────────────────────────────────────────────────────────────────╯</text><text class="terminal-r1" x="976" y="117.6" textLength="12.2" clip-path="url(#terminal-line-4)">
</text><text class="terminal-r3" x="48.8" y="142" textLength="12.2" clip-path="url(#terminal-line-5)">│</text><text class="terminal-r8" x="427" y="142" textLength="158.6" clip-path="url(#terminal-line-5)">Issues&#160;Report</text><text class="terminal-r1" x="976" y="142" textLength="12.2" clip-path="url(#terminal-line-5)">
</text><text class="terminal-r6" x="12.2" y="166.4" textLength="12.2" clip-path="url(#terminal-line-6)">▏</text><text class="terminal-r5" x="24.4" y="166.4" textLength="12.2" clip-path="url(#terminal-line-6)">◫</text><text class="terminal-r3" x="48.8" y="166.4" textLength="12.2" clip-path="url(#terminal-line-6)">│</text><text class="terminal-r1" x="976" y="166.4" textLength="12.2" clip-path="url(#terminal-line-6)">
</text><text class="terminal-r6" x="12.2" y="190.8" textLength="12.2" clip-path="url(#terminal-line-7)">▏</text><text class="terminal-r5" x="24.4" y="190.8" textLength="12.2" clip-path="url(#terminal-line-7)">≡</text><text class="terminal-r3" x="48.8" y="190.8" textLength="12.2" clip-path="url(#terminal-line-7)">│</text><text class="terminal-r1" x="976" y="190.8" textLength="12.2" clip-path="url(#terminal-line-7)">
</text><text class="terminal-r6" x="12.2" y="215.2" textLength="12.2" clip-path="url(#terminal-line-8)">▏</text><text class="terminal-r5" x="24.4" y="215.2" textLength="12.2" clip-path="url(#terminal-line-8)">◉</text><text class="terminal-r3" x="48.8" y="215.2" textLength="12.2" clip-path="url(#terminal-line-8)">│</text><text class="terminal-r9" x="61" y="215.2" textLength="780.8" clip-path="url(#terminal-line-8)">▔▔▔▔▔▔▔▔▔▔▔▔▔▔▔▔▔▔▔▔▔▔▔▔▔▔▔▔▔▔▔▔▔▔▔▔▔▔▔▔▔▔▔▔▔▔▔▔▔▔▔▔▔▔▔▔▔▔▔▔▔▔▔▔</text><text class="terminal-r1" x="976" y="215.2" textLength="12.2" clip-path="url(#terminal-line-8)">
</text><text class="terminal-r6" x="12.2" y="239.6" textLength="12.2" clip-path="url(#terminal-line-9)">▏</text><text class="terminal-r5" x="24.4" y="239.6" textLength="12.2" clip-path="url(#terminal-line-9)">▤</text><text class="terminal-r3" x="48.8" y="239.6" textLength="12.2" clip-path="url(#terminal-line-9)">│</text><text class="terminal-r10" x="73.2" y="239.6" textLength="158.6" clip-path="url(#terminal-line-9)">&#160;Issues:&#160;All&#160;</text><text class="terminal-r10" x="305" y="239.6" textLength="97.6" clip-path="url(#terminal-line-9)">&#160;Errors&#160;</text><text class="terminal-r10" x="488" y="239.6" textLength="122" clip-path="url(#terminal-line-9)">&#160;Warnings&#160;</text><text class="terminal-r10" x="695.4" y="239.6" textLength="97.6" clip-path="url(#terminal-line-9)">&#160;Legend&#160;</text><text class="terminal-r1" x="976" y="239.6" textLength="12.2" clip-path="url(#terminal-line-9)">
</text><text class="terminal-r11" x="12.2" y="264" textLength="12.2" clip-path="url(#terminal-line-10)">▏</text><text class="terminal-r4" x="24.4" y="264" textLength="12.2" clip-path="url(#terminal-line-10)">!</text><text class="terminal-r3" x="48.8" y="264" textLength="12.2" clip-path="url(#terminal-line-10)">│</text><text class="terminal-r12" x="61" y="264" textLength="780.8" clip-path="url(#terminal-line-10)">▁▁▁▁▁▁▁▁▁▁▁▁▁▁▁▁▁▁▁▁▁▁▁▁▁▁▁▁▁▁▁▁▁▁▁▁▁▁▁▁▁▁▁▁▁▁▁▁▁▁▁▁▁▁▁▁▁▁▁▁▁▁▁▁</text><text class="terminal-r1" x="976" y="264" textLength="12.2" clip-path="url(#terminal-line-10)">
</text><text class="terminal-r6" x="12.2" y="288.4" textLength="12.2" clip-path="url(#terminal-line-11)">▏</text><text class="terminal-r5" x="24.4" y="288.4" textLength="12.2" clip-path="url(#terminal-line-11)">✎</text><text class="terminal-r3" x="48.8" y="288.4" textLength="12.2" clip-path="url(#terminal-line-11)">│</text><text class="terminal-r3" x="61" y="288.4" textLength="902.8" clip-path="url(#terminal-line-11)">╭───────────────────────────────────────────────╮╭───────────────────────╮</text><text class="terminal-r1" x="976" y="288.4" textLength="12.2" clip-path="url(#terminal-line-11)">
</text><text class="terminal-r6" x="12.2" y="312.8" textLength="12.2" clip-path="url(#terminal-line-12)">▏</text><text class="terminal-r5" x="24.4" y="312.8" textLength="12.2" clip-path="url(#terminal-line-12)">⏚</text><text class="terminal-r3" x="48.8" y="312.8" textLength="12.2" clip-path="url(#terminal-line-12)">│</text><text class="terminal-r3" x="61" y="312.8" textLength="902.8" clip-path="url(#terminal-line-12)">╰───────────────────────────────────────────────╯╰───────────────────────╯</text><text class="terminal-r1" x="976" y="312.8" textLength="12.2" clip-path="url(#terminal-line-12)">
</text><text class="terminal-r3" x="48.8" y="337.2" textLength="12.2" clip-path="url(#terminal-line-13)">│</text><text class="terminal-r5" x="73.2" y="337.2" textLength="890.6" clip-path="url(#terminal-line-13)">total=9&#160;|&#160;errors=3&#160;|&#160;warnings=6&#160;|&#160;info=0&#160;|&#160;filter=all&#160;|&#160;page&#160;1/1&#160;rows&#160;1-9</text><text class="terminal-r1" x="976" y="337.2" textLength="12.2" clip-path="url(#terminal-line-13)">
</text><text class="terminal-r3" x="12.2" y="361.6" textLength="951.6" clip-path="url(#terminal-line-14)">──────────────────────────────────────────────────────────────────────────────</text><text class="terminal-r1" x="976" y="361.6" textLength="12.2" clip-path="url(#terminal-line-14)">
</text><text class="terminal-r5" x="24.4" y="386" textLength="73.2" clip-path="url(#terminal-line-15)">Ready.</text><text class="terminal-r1" x="976" y="386" textLength="12.2" clip-path="url(#terminal-line-15)">
</text><text class="terminal-r1" x="976" y="410.4" textLength="12.2" clip-path="url(#terminal-line-16)">
</text><text class="terminal-r13" x="24.4" y="434.8" textLength="390.4" clip-path="url(#terminal-line-17)">━━━━━━━━━━━━━━━━━━━━━━━━━━━━━━━━</text><text class="terminal-r5" x="451.4" y="434.8" textLength="24.4" clip-path="url(#terminal-line-17)">0%</text><text class="terminal-r5" x="488" y="434.8" textLength="97.6" clip-path="url(#terminal-line-17)">--:--:--</text><text class="terminal-r1" x="976" y="434.8" textLength="12.2" clip-path="url(#terminal-line-17)">
</text><text class="terminal-r1" x="976" y="459.2" textLength="12.2" clip-path="url(#terminal-line-18)">
</text><text class="terminal-r1" x="976" y="483.6" textLength="12.2" clip-path="url(#terminal-line-19)">
</text><text class="terminal-r1" x="976" y="508" textLength="12.2" clip-path="url(#terminal-line-20)">
</text><text class="terminal-r1" x="976" y="532.4" textLength="12.2" clip-path="url(#terminal-line-21)">
</text><text class="terminal-r14" x="12.2" y="556.8" textLength="48.8" clip-path="url(#terminal-line-22)">&#160;^k&#160;</text><text class="terminal-r2" x="61" y="556.8" textLength="97.6" clip-path="url(#terminal-line-22)">Palette&#160;</text><text class="terminal-r14" x="158.6" y="556.8" textLength="48.8" clip-path="url(#terminal-line-22)">&#160;^d&#160;</text><text class="terminal-r2" x="207.4" y="556.8" textLength="97.6" clip-path="url(#terminal-line-22)">Density&#160;</text><text class="terminal-r14" x="305" y="556.8" textLength="48.8" clip-path="url(#terminal-line-22)">&#160;^l&#160;</text><text class="terminal-r2" x="353.8" y="556.8" textLength="61" clip-path="url(#terminal-line-22)">Load&#160;</text><text class="terminal-r14" x="414.8" y="556.8" textLength="48.8" clip-path="url(#terminal-line-22)">&#160;^s&#160;</text><text class="terminal-r2" x="463.6" y="556.8" textLength="61" clip-path="url(#terminal-line-22)">Save&#160;</text><text class="terminal-r14" x="524.6" y="556.8" textLength="36.6" clip-path="url(#terminal-line-22)">&#160;/&#160;</text><text class="terminal-r2" x="561.2" y="556.8" textLength="61" clip-path="url(#terminal-line-22)">Find&#160;</text><text class="terminal-r14" x="622.2" y="556.8" textLength="36.6" clip-path="url(#terminal-line-22)">&#160;g&#160;</text><text class="terminal-r2" x="658.8" y="556.8" textLength="73.2" clip-path="url(#terminal-line-22)">Go-to&#160;</text><text class="terminal-r14" x="732" y="556.8" textLength="36.6" clip-path="url(#terminal-line-22)">&#160;q&#160;</text><text class="terminal-r2" x="768.6" y="556.8" textLength="48.8" clip-path="url(#terminal-line-22)">Quit</text><text class="terminal-r15" x="817.4" y="556.8" textLength="12.2" clip-path="url(#terminal-line-22)">▏</text><text class="terminal-r14" x="829.6" y="556.8" textLength="24.4" clip-path="url(#terminal-line-22)">^p</text><text class="terminal-r2" x="854" y="556.8" textLength="97.6" clip-path="url(#terminal-line-22)">&#160;palette</text><text class="terminal-r1" x="976" y="556.8" textLength="12.2" clip-path="url(#terminal-line-22)">
</text>
    </g>
    </g>
</svg>
